<?xml version="1.0" encoding="UTF-8" standalone="no"?>
<!-- Created with Inkscape (http://www.inkscape.org/) -->

<svg
   xmlns:dc="http://purl.org/dc/elements/1.1/"
   xmlns:cc="http://creativecommons.org/ns#"
   xmlns:rdf="http://www.w3.org/1999/02/22-rdf-syntax-ns#"
   xmlns:svg="http://www.w3.org/2000/svg"
   xmlns="http://www.w3.org/2000/svg"
   xmlns:sodipodi="http://sodipodi.sourceforge.net/DTD/sodipodi-0.dtd"
   xmlns:inkscape="http://www.inkscape.org/namespaces/inkscape"
   width="64"
   height="64"
   id="svg2"
   version="1.1"
   inkscape:version="0.92.4 (unknown)"
   sodipodi:docname="elementary_logo.svg">
  <defs
     id="defs4">
    <inkscape:path-effect
       is_visible="true"
       id="path-effect2991"
       effect="spiro" />
    <inkscape:path-effect
       effect="spiro"
       id="path-effect3177"
       is_visible="true" />
  </defs>
  <sodipodi:namedview
     id="base"
     pagecolor="#ffffff"
     bordercolor="#666666"
     borderopacity="1.0"
     inkscape:pageopacity="0.0"
     inkscape:pageshadow="2"
     inkscape:zoom="11.313709"
     inkscape:cx="31.152196"
     inkscape:cy="30.30972"
     inkscape:document-units="px"
     inkscape:current-layer="layer1"
     showgrid="true"
     showguides="true"
     inkscape:guide-bbox="true"
     inkscape:window-width="1920"
     inkscape:window-height="1017"
     inkscape:window-x="0"
     inkscape:window-y="30"
     inkscape:window-maximized="1"
     inkscape:snap-bbox="true"
     inkscape:bbox-nodes="true"
     inkscape:bbox-paths="true">
    <sodipodi:guide
       orientation="1,0"
       position="100,100"
       id="guide2985"
       inkscape:locked="false" />
    <sodipodi:guide
       orientation="1,0"
       position="700,555.18566"
       id="guide2987"
       inkscape:locked="false" />
    <sodipodi:guide
       orientation="0,1"
       position="-102.43278,100"
       id="guide2989"
       inkscape:locked="false" />
    <sodipodi:guide
       orientation="0,1"
       position="-169.01408,700"
       id="guide2991"
       inkscape:locked="false" />
    <inkscape:grid
       type="xygrid"
       id="grid822" />
  </sodipodi:namedview>
  <metadata
     id="metadata7">
    <rdf:RDF>
      <cc:Work
         rdf:about="">
        <dc:format>image/svg+xml</dc:format>
        <dc:type
           rdf:resource="http://purl.org/dc/dcmitype/StillImage" />
        <dc:title></dc:title>
      </cc:Work>
    </rdf:RDF>
  </metadata>
  <g
     inkscape:label="Layer 1"
     inkscape:groupmode="layer"
     id="layer1"
     transform="translate(0,-988.3622)">
    <path
       style="fill:#000000;fill-opacity:1;stroke:none;stroke-width:0.72499996;stroke-linejoin:round;stroke-miterlimit:4;stroke-dasharray:none;stroke-dashoffset:0;stroke-opacity:1"
       d="M 31.999999,991.36222 C 15.983755,991.36222 3,1004.3459 3,1020.3622 c 0,16.0158 12.983755,29 28.999999,29 16.016245,0 29.000001,-12.9842 29.000001,-29 0,-16.0163 -12.983756,-28.99998 -29.000001,-28.99998 z m 0,2.41653 c 12.176853,0 22.441526,8.18755 25.589476,19.35755 -2.711334,5.5923 -6.569328,10.6276 -11.267701,14.6963 -2.257029,1.9546 -4.721282,3.6971 -7.443348,4.9238 -2.722023,1.2271 -5.716107,1.9231 -8.696975,1.752 -2.239587,-0.1285 -4.451915,-0.752 -6.413227,-1.8395 5.197795,-2.8166 9.887633,-6.5718 13.726653,-11.0684 2.519895,-2.9513 4.724557,-6.3059 5.57347,-10.0924 0.424436,-1.8937 0.496356,-3.8765 0.09984,-5.776 -0.396471,-1.8995 -1.274923,-3.7095 -2.603951,-5.1235 -1.298415,-1.38118 -3.00291,-2.35928 -4.830325,-2.86348 -1.827414,-0.50418 -3.77207,-0.54313 -5.636853,-0.203 -3.729607,0.6815 -7.059429,2.84898 -9.730122,5.54018 -4.707486,4.7432 -7.617678,11.4364 -7.083871,18.0977 0.2668,3.3308 1.383093,6.6037 3.295726,9.3434 0.426962,0.6119 0.896307,1.1943 1.39867,1.7462 -2.78632,0.9753 -5.671323,1.6691 -8.5972985,2.0603 -2.5121456,-4.0593 -3.963347,-8.8438 -3.963347,-13.9686 0,-14.6814 11.9017655,-26.58338 26.5833455,-26.58338 z m 0.169028,5.37077 c 1.868719,0 3.750115,0.5684 5.24117,1.69488 1.343363,1.015 2.338727,2.4588 2.903026,4.0451 0.564257,1.5859 0.709091,3.3085 0.516531,4.9814 -0.384871,3.3448 -2.072548,6.4126 -4.111331,9.0926 -3.60992,4.7449 -8.408259,8.5427 -13.744799,11.2011 -0.546235,0.2735 -1.101129,0.5307 -1.658426,0.7793 -1.161202,-1.0162 -2.156482,-2.2214 -2.915122,-3.5646 -1.585222,-2.8067 -2.107968,-6.1404 -1.800402,-9.3496 0.3074,-3.2085 1.408695,-6.3008 2.887902,-9.1651 1.715102,-3.3205 4.052875,-6.4658 7.325525,-8.2709 1.636303,-0.90268 3.48725,-1.44668 5.355926,-1.44418 z m 26.175525,17.65398 c 0.155771,1.1642 0.238629,2.3519 0.238629,3.5587 0,14.6814 -11.901766,26.583 -26.583347,26.583 -8.245322,0 -15.614346,-3.7533 -20.490323,-9.6454 3.009578,-0.6835 5.95109,-1.6653 8.7725,-2.9152 1.233825,0.94 2.596453,1.7105 4.04492,2.2656 4.171235,1.5992 8.907018,1.3681 13.128548,-0.095 4.22149,-1.4611 7.964975,-4.0843 11.228428,-7.1351 3.887574,-3.6342 7.16532,-7.9175 9.660604,-12.6179 z"
       id="path2993"
       inkscape:connector-curvature="0" />
  </g>
</svg>
